<?xml version="1.0" encoding="UTF-8"?>
<svg id="logosandtypes_com" data-name="logosandtypes com" xmlns="http://www.w3.org/2000/svg" xmlns:xlink="http://www.w3.org/1999/xlink" viewBox="0 0 150 150">
  <defs>
    <style>.cls-1 {
  clip-path: url("#clippath");
}

.cls-2 {
  fill: none;
}

.cls-3 {
  fill: #bc9745;
}

</style>
    <clipPath id="clippath">
      <path class="cls-3" d="M126.01,102.26c-4.04-5.09-11.97-8.65-20.71-9.31l-.02,.21c-1.53-3.26-3.24-6.51-5.27-9.51l.02-.02c.15-.14,.3-.28,.45-.41,5.62-5.23,9.36-12.29,9.77-18.41v-.21s-.9-.06-.9-.06v.21c-.41,5.9-4.04,12.72-9.49,17.8-.12,.11-.25,.23-.37,.34-4.21-5.94-9.79-10.77-17.94-12.47,13.59-1.6,25.94-8.38,25.94-23.25,0-1.28-.11-2.47-.31-3.59l.11-.13c4.73-5.56,7.04-11.41,7.04-17.87,0-5.83-2.7-11.59-7.42-15.79-5.84-5.21-14.58-7.96-25.29-7.96-14.65,0-28.39,4.71-38.7,13.25-10.69,8.86-16.58,21.1-16.58,34.48,0,6.83,1.39,13.2,4.12,18.92,2.68,5.6,6.57,10.43,11.58,14.36-8.8,6.88-13.52,14.2-14.44,22.37-.47,4.2,.58,8.08,2.89,10.67,1.97,2.21,4.73,3.37,7.98,3.37l20.98-.07v-.92s-15.16,.05-15.16,.05c8.02-1.36,21.8-6.45,24.74-25.25h.02c1.52,.12,3.01,.19,4.45,.19,4.99,0,9.72-.76,14.05-2.27h0c.56,1.56,1.13,3.15,1.74,4.73h0l-.08-.19c-5.9,2.39-11.22,6.27-14.98,10.91-4.13,5.11-6.31,11-6.31,17.03,0,3.35,1.15,6.69,3.14,9.16,1.62,2.01,4.55,4.4,9.34,4.4,5.69,0,10.88-4.93,10.88-10.34s-4.48-9.98-9.98-9.98h-.21v.91h.21c5,0,9.06,4.07,9.06,9.06s-4.84,9.42-9.96,9.42c-7.51,0-11.57-6.52-11.57-12.65s2.12-11.53,6.12-16.48c3.66-4.52,8.84-8.28,14.59-10.61,4.66,11.96,11.28,23.61,26,23.59h0c8.62,0,13.14-4.61,13.14-10.57,0-2.42-.86-4.85-2.66-7.11h0Zm-51.17-32.49c0,.36,0,.46,0,.57v.47c5.98,.62,8.86,9.36,12.38,19.3-4.23,1.47-8.86,2.22-13.74,2.22-1.4,0-2.86-.06-4.34-.18,.28-2.07,.43-4.3,.43-6.7v-17.66l1.79-.9c6.67-3.35,13.56-6.82,19.75-10.56-3.74,13.2-16.28,13.44-16.28,13.44Zm16.61-14.71l-.18,.11c-6.31,3.87-13.43,7.45-20.31,10.9l-1.38,.69V30.01h7.2s15.38-.35,15.38,18.14c0,2.61-.26,4.89-.72,6.91h0Zm-47.9,27.78c2.3-1.74,4.93-3.49,8.02-5.36v10.1c-2.88-1.34-5.58-2.93-8.02-4.74Zm-12.38,32.43c-2.13-2.39-3.11-6.01-2.66-9.95,.89-7.97,5.57-15.13,14.28-21.9,2.66,2,5.62,3.74,8.78,5.17v3.1c0,8.01-1.28,26.64-13.1,26.64-2.98,0-5.5-1.06-7.3-3.07h0ZM56.21,28.93v62.77c0,11.96-4.23,22.53-12.07,25.95,2.21-1.43,4.01-3.79,5.38-7.06,1.95-4.67,2.98-11.2,2.98-18.88V28.79h-7.63v.92h6.71v46.7c-3.47,2.08-6.27,3.94-8.79,5.86-4.97-3.86-8.83-8.61-11.48-14.13-2.69-5.61-4.06-11.86-4.06-18.57,0-13.09,5.77-25.09,16.24-33.77C53.64,7.39,67.17,2.76,81.61,2.76c10.48,0,19.01,2.67,24.68,7.72,4.52,4.03,7.11,9.53,7.11,15.1,0,6.07-2.12,11.59-6.47,16.86-3.11-12.43-18.46-13.52-22.43-13.52h-28.28Zm33.25,67.24h0s0,0,0,0h0Zm16.16-2.27c8.33,.71,15.86,4.13,19.67,8.93,1.66,2.09,2.46,4.33,2.46,6.54,0,1.79-1.01,7.36-6.35,7.36-7.23,0-10.52-11.41-15.79-22.84h0Z"></path>
    </clipPath>
  </defs>
  <path class="cls-2" d="M0,0H150V150H0V0Z"></path>
  <g>
    <path class="cls-3" d="M126.01,102.26c-4.04-5.09-11.97-8.65-20.71-9.31l-.02,.21c-1.53-3.26-3.24-6.51-5.27-9.51l.02-.02c.15-.14,.3-.28,.45-.41,5.62-5.23,9.36-12.29,9.77-18.41v-.21s-.9-.06-.9-.06v.21c-.41,5.9-4.04,12.72-9.49,17.8-.12,.11-.25,.23-.37,.34-4.21-5.94-9.79-10.77-17.94-12.47,13.59-1.6,25.94-8.38,25.94-23.25,0-1.28-.11-2.47-.31-3.59l.11-.13c4.73-5.56,7.04-11.41,7.04-17.87,0-5.83-2.7-11.59-7.42-15.79-5.84-5.21-14.58-7.96-25.29-7.96-14.65,0-28.39,4.71-38.7,13.25-10.69,8.86-16.58,21.1-16.58,34.48,0,6.83,1.39,13.2,4.12,18.92,2.68,5.6,6.57,10.43,11.58,14.36-8.8,6.88-13.52,14.2-14.44,22.37-.47,4.2,.58,8.08,2.89,10.67,1.97,2.21,4.73,3.37,7.98,3.37l20.98-.07v-.92s-15.16,.05-15.16,.05c8.02-1.36,21.8-6.45,24.74-25.25h.02c1.52,.12,3.01,.19,4.45,.19,4.99,0,9.72-.76,14.05-2.27h0c.56,1.56,1.13,3.15,1.74,4.73h0l-.08-.19c-5.9,2.39-11.22,6.27-14.98,10.91-4.13,5.11-6.31,11-6.31,17.03,0,3.35,1.15,6.69,3.14,9.16,1.62,2.01,4.55,4.4,9.34,4.4,5.69,0,10.88-4.93,10.88-10.34s-4.48-9.98-9.98-9.98h-.21v.91h.21c5,0,9.06,4.07,9.06,9.06s-4.84,9.42-9.96,9.42c-7.51,0-11.57-6.52-11.57-12.65s2.12-11.53,6.12-16.48c3.66-4.52,8.84-8.28,14.59-10.61,4.66,11.96,11.28,23.61,26,23.59h0c8.62,0,13.14-4.61,13.14-10.57,0-2.42-.86-4.85-2.66-7.11h0Zm-51.17-32.49c0,.36,0,.46,0,.57v.47c5.98,.62,8.86,9.36,12.38,19.3-4.23,1.47-8.86,2.22-13.74,2.22-1.4,0-2.86-.06-4.34-.18,.28-2.07,.43-4.3,.43-6.7v-17.66l1.79-.9c6.67-3.35,13.56-6.82,19.75-10.56-3.74,13.2-16.28,13.44-16.28,13.44Zm16.61-14.71l-.18,.11c-6.31,3.87-13.43,7.45-20.31,10.9l-1.38,.69V30.01h7.2s15.38-.35,15.38,18.14c0,2.61-.26,4.89-.72,6.91h0Zm-47.9,27.78c2.3-1.74,4.93-3.49,8.02-5.36v10.1c-2.88-1.34-5.58-2.93-8.02-4.74Zm-12.38,32.43c-2.13-2.39-3.11-6.01-2.66-9.95,.89-7.97,5.57-15.13,14.28-21.9,2.66,2,5.62,3.74,8.78,5.17v3.1c0,8.01-1.28,26.64-13.1,26.64-2.98,0-5.5-1.06-7.3-3.07h0ZM56.21,28.93v62.77c0,11.96-4.23,22.53-12.07,25.95,2.21-1.43,4.01-3.79,5.38-7.06,1.95-4.67,2.98-11.2,2.98-18.88V28.79h-7.63v.92h6.71v46.7c-3.47,2.08-6.27,3.94-8.79,5.86-4.97-3.86-8.83-8.61-11.48-14.13-2.69-5.61-4.06-11.86-4.06-18.57,0-13.09,5.77-25.09,16.24-33.77C53.64,7.39,67.17,2.76,81.61,2.76c10.48,0,19.01,2.67,24.68,7.72,4.52,4.03,7.11,9.53,7.11,15.1,0,6.07-2.12,11.59-6.47,16.86-3.11-12.43-18.46-13.52-22.43-13.52h-28.28Zm33.25,67.24h0s0,0,0,0h0Zm16.16-2.27c8.33,.71,15.86,4.13,19.67,8.93,1.66,2.09,2.46,4.33,2.46,6.54,0,1.79-1.01,7.36-6.35,7.36-7.23,0-10.52-11.41-15.79-22.84h0Z"></path>
    <g class="cls-1">
      <rect class="cls-3" x="25.7" y="-12.43" width="104.89" height="158.87"></rect>
    </g>
  </g>
</svg>